<mxfile host="app.diagrams.net" modified="2021-06-19T19:15:53.340Z" agent="5.0 (Windows NT 10.0; Win64; x64) AppleWebKit/537.36 (KHTML, like Gecko) Chrome/91.0.4472.106 Safari/537.36" etag="GquhCgc8Xy9JXScQnNwG" version="14.8.0" type="github">
  <diagram id="vbxqO8iuwQj_Sd485kU4" name="Page-1">
    <mxGraphModel dx="1016" dy="567" grid="1" gridSize="10" guides="1" tooltips="1" connect="1" arrows="1" fold="1" page="1" pageScale="1" pageWidth="827" pageHeight="1169" math="0" shadow="0">
      <root>
        <mxCell id="0" />
        <mxCell id="1" parent="0" />
        <mxCell id="mW0Ygw0yhRWnIfbjgJB5-5" style="edgeStyle=orthogonalEdgeStyle;rounded=0;orthogonalLoop=1;jettySize=auto;html=1;" edge="1" parent="1" source="mW0Ygw0yhRWnIfbjgJB5-1">
          <mxGeometry relative="1" as="geometry">
            <mxPoint x="75" y="150" as="targetPoint" />
          </mxGeometry>
        </mxCell>
        <mxCell id="mW0Ygw0yhRWnIfbjgJB5-1" value="Início" style="ellipse;whiteSpace=wrap;html=1;" vertex="1" parent="1">
          <mxGeometry x="30" y="60" width="90" height="50" as="geometry" />
        </mxCell>
        <mxCell id="mW0Ygw0yhRWnIfbjgJB5-2" value="exemplo 1" style="text;html=1;strokeColor=none;fillColor=none;align=center;verticalAlign=middle;whiteSpace=wrap;rounded=0;" vertex="1" parent="1">
          <mxGeometry x="364" y="10" width="100" height="30" as="geometry" />
        </mxCell>
        <mxCell id="mW0Ygw0yhRWnIfbjgJB5-36" style="edgeStyle=orthogonalEdgeStyle;rounded=0;orthogonalLoop=1;jettySize=auto;html=1;" edge="1" parent="1" source="mW0Ygw0yhRWnIfbjgJB5-6">
          <mxGeometry relative="1" as="geometry">
            <mxPoint x="190" y="277.5" as="targetPoint" />
          </mxGeometry>
        </mxCell>
        <mxCell id="mW0Ygw0yhRWnIfbjgJB5-6" value="" style="rhombus;whiteSpace=wrap;html=1;" vertex="1" parent="1">
          <mxGeometry x="17.5" y="240" width="115" height="75" as="geometry" />
        </mxCell>
        <mxCell id="mW0Ygw0yhRWnIfbjgJB5-20" style="edgeStyle=orthogonalEdgeStyle;rounded=0;orthogonalLoop=1;jettySize=auto;html=1;exitX=1.04;exitY=0.123;exitDx=0;exitDy=0;exitPerimeter=0;" edge="1" parent="1" source="mW0Ygw0yhRWnIfbjgJB5-22">
          <mxGeometry relative="1" as="geometry">
            <mxPoint x="75" y="350" as="targetPoint" />
            <mxPoint x="75" y="320" as="sourcePoint" />
          </mxGeometry>
        </mxCell>
        <mxCell id="mW0Ygw0yhRWnIfbjgJB5-7" value="&lt;font style=&quot;font-size: 6px&quot;&gt;&lt;font&gt;A caixa possui 5 unidades d&lt;/font&gt;&lt;font&gt;e refrigerante e todos são do mesmo tipo?&lt;/font&gt;&lt;/font&gt;" style="text;html=1;strokeColor=none;fillColor=none;align=center;verticalAlign=middle;whiteSpace=wrap;rounded=0;" vertex="1" parent="1">
          <mxGeometry x="40" y="252.5" width="70" height="50" as="geometry" />
        </mxCell>
        <mxCell id="mW0Ygw0yhRWnIfbjgJB5-17" style="edgeStyle=orthogonalEdgeStyle;rounded=0;orthogonalLoop=1;jettySize=auto;html=1;" edge="1" parent="1" source="mW0Ygw0yhRWnIfbjgJB5-16">
          <mxGeometry relative="1" as="geometry">
            <mxPoint x="75" y="240" as="targetPoint" />
          </mxGeometry>
        </mxCell>
        <mxCell id="mW0Ygw0yhRWnIfbjgJB5-16" value="&lt;font style=&quot;font-size: 8px&quot;&gt;Abastecer a caixa&lt;/font&gt;" style="rounded=0;whiteSpace=wrap;html=1;" vertex="1" parent="1">
          <mxGeometry x="30" y="150" width="90" height="45" as="geometry" />
        </mxCell>
        <mxCell id="mW0Ygw0yhRWnIfbjgJB5-22" value="&lt;b&gt;Sim&lt;/b&gt;" style="text;html=1;strokeColor=none;fillColor=none;align=center;verticalAlign=middle;whiteSpace=wrap;rounded=0;" vertex="1" parent="1">
          <mxGeometry x="30" y="310" width="43.75" height="30" as="geometry" />
        </mxCell>
        <mxCell id="mW0Ygw0yhRWnIfbjgJB5-41" style="edgeStyle=orthogonalEdgeStyle;rounded=0;orthogonalLoop=1;jettySize=auto;html=1;" edge="1" parent="1" source="mW0Ygw0yhRWnIfbjgJB5-28">
          <mxGeometry relative="1" as="geometry">
            <mxPoint x="75" y="480" as="targetPoint" />
          </mxGeometry>
        </mxCell>
        <mxCell id="mW0Ygw0yhRWnIfbjgJB5-44" style="edgeStyle=orthogonalEdgeStyle;rounded=0;orthogonalLoop=1;jettySize=auto;html=1;" edge="1" parent="1" source="mW0Ygw0yhRWnIfbjgJB5-28">
          <mxGeometry relative="1" as="geometry">
            <mxPoint x="170" y="395" as="targetPoint" />
          </mxGeometry>
        </mxCell>
        <mxCell id="mW0Ygw0yhRWnIfbjgJB5-28" value="&lt;font style=&quot;font-size: 8px&quot;&gt;A kombi possui a quantidade de caixas &amp;lt;6 ?&amp;nbsp;&lt;/font&gt;" style="rhombus;whiteSpace=wrap;html=1;" vertex="1" parent="1">
          <mxGeometry x="31.25" y="350" width="87.5" height="90" as="geometry" />
        </mxCell>
        <mxCell id="mW0Ygw0yhRWnIfbjgJB5-33" value="&lt;b&gt;NÃO&lt;/b&gt;" style="text;html=1;strokeColor=none;fillColor=none;align=center;verticalAlign=middle;whiteSpace=wrap;rounded=0;" vertex="1" parent="1">
          <mxGeometry x="130" y="250" width="40" height="20" as="geometry" />
        </mxCell>
        <mxCell id="mW0Ygw0yhRWnIfbjgJB5-38" style="edgeStyle=orthogonalEdgeStyle;rounded=0;orthogonalLoop=1;jettySize=auto;html=1;" edge="1" parent="1" source="mW0Ygw0yhRWnIfbjgJB5-37">
          <mxGeometry relative="1" as="geometry">
            <mxPoint x="330" y="278" as="targetPoint" />
          </mxGeometry>
        </mxCell>
        <mxCell id="mW0Ygw0yhRWnIfbjgJB5-37" value="&lt;font style=&quot;font-size: 8px&quot;&gt;Não enviar&lt;/font&gt;" style="rounded=0;whiteSpace=wrap;html=1;" vertex="1" parent="1">
          <mxGeometry x="190" y="255" width="90" height="45" as="geometry" />
        </mxCell>
        <mxCell id="mW0Ygw0yhRWnIfbjgJB5-39" value="" style="shape=document;whiteSpace=wrap;html=1;boundedLbl=1;" vertex="1" parent="1">
          <mxGeometry x="330" y="265" width="40" height="25" as="geometry" />
        </mxCell>
        <mxCell id="mW0Ygw0yhRWnIfbjgJB5-40" value="&lt;b&gt;FIM&lt;/b&gt;" style="text;html=1;strokeColor=none;fillColor=none;align=center;verticalAlign=middle;whiteSpace=wrap;rounded=0;" vertex="1" parent="1">
          <mxGeometry x="330" y="265" width="40" height="20" as="geometry" />
        </mxCell>
        <mxCell id="mW0Ygw0yhRWnIfbjgJB5-42" value="Carregar a caixa na kombi" style="rounded=0;whiteSpace=wrap;html=1;" vertex="1" parent="1">
          <mxGeometry x="32.5" y="480" width="87.5" height="40" as="geometry" />
        </mxCell>
        <mxCell id="mW0Ygw0yhRWnIfbjgJB5-49" style="edgeStyle=orthogonalEdgeStyle;rounded=0;orthogonalLoop=1;jettySize=auto;html=1;" edge="1" parent="1" source="mW0Ygw0yhRWnIfbjgJB5-46">
          <mxGeometry relative="1" as="geometry">
            <mxPoint x="290" y="395" as="targetPoint" />
          </mxGeometry>
        </mxCell>
        <mxCell id="mW0Ygw0yhRWnIfbjgJB5-46" value="É =6 ?" style="rhombus;whiteSpace=wrap;html=1;" vertex="1" parent="1">
          <mxGeometry x="170" y="355" width="80" height="80" as="geometry" />
        </mxCell>
        <mxCell id="mW0Ygw0yhRWnIfbjgJB5-47" value="&lt;b&gt;NÃO&lt;/b&gt;" style="text;html=1;strokeColor=none;fillColor=none;align=center;verticalAlign=middle;whiteSpace=wrap;rounded=0;" vertex="1" parent="1">
          <mxGeometry x="118.75" y="370" width="40" height="20" as="geometry" />
        </mxCell>
        <mxCell id="mW0Ygw0yhRWnIfbjgJB5-48" value="&lt;b&gt;Sim&lt;/b&gt;" style="text;html=1;strokeColor=none;fillColor=none;align=center;verticalAlign=middle;whiteSpace=wrap;rounded=0;" vertex="1" parent="1">
          <mxGeometry x="40" y="440" width="43.75" height="30" as="geometry" />
        </mxCell>
        <mxCell id="mW0Ygw0yhRWnIfbjgJB5-51" style="edgeStyle=orthogonalEdgeStyle;rounded=0;orthogonalLoop=1;jettySize=auto;html=1;" edge="1" parent="1" source="mW0Ygw0yhRWnIfbjgJB5-50">
          <mxGeometry relative="1" as="geometry">
            <mxPoint x="430" y="395" as="targetPoint" />
          </mxGeometry>
        </mxCell>
        <mxCell id="mW0Ygw0yhRWnIfbjgJB5-50" value="&lt;font style=&quot;font-size: 8px&quot;&gt;Não enviar&lt;/font&gt;" style="rounded=0;whiteSpace=wrap;html=1;" vertex="1" parent="1">
          <mxGeometry x="290" y="372.5" width="90" height="45" as="geometry" />
        </mxCell>
        <mxCell id="mW0Ygw0yhRWnIfbjgJB5-52" value="&lt;b&gt;FIM&lt;/b&gt;" style="text;html=1;strokeColor=none;fillColor=none;align=center;verticalAlign=middle;whiteSpace=wrap;rounded=0;" vertex="1" parent="1">
          <mxGeometry x="430" y="385" width="40" height="20" as="geometry" />
        </mxCell>
      </root>
    </mxGraphModel>
  </diagram>
</mxfile>
